<?xml version="1.0" encoding="utf-8"?>
<!DOCTYPE svg PUBLIC "-//W3C//DTD SVG 1.1//EN" "http://www.w3.org/Graphics/SVG/1.1/DTD/svg11.dtd">
<svg version="1.1" xmlns="http://www.w3.org/2000/svg" xmlns:xlink="http://www.w3.org/1999/xlink" width="36px" height="36px" x="0px" y="0px" viewBox="0 0 485.415 485.415" enable-background="new 0 0 485.415 485.415" xml:space="preserve">
<metadata> Svg Vector Icons : http://www.onlinewebfonts.com/icon </metadata>
<g><path d="M84.8,989.6c-41.3,0-74.8-33.5-74.8-74.8V84.4C10,43.1,43.5,9.6,84.8,9.6h830.4c41.3,0,74.8,33.5,74.8,74.8v508.1c0,7.7-3.4,15.5-8.6,21.5L613.5,981.8c-6,6-12.9,8.6-21.5,8.6H84.8V989.6z M131.2,66.3c-35.2,0-63.6,28.4-63.6,63.6v738.4c0,35.2,28.4,63.6,63.6,63.6h432.4V638c0-41.3,33.5-74.8,74.8-74.8h294V130.8c0-35.2-28.4-63.6-63.6-63.6H131.2L131.2,66.3z M684.8,620.8c-35.2,0-63.6,28.4-63.6,63.6V889l268.2-268.2L684.8,620.8L684.8,620.8z M269.6,666.3c-16.3,0-29.2-12.9-29.2-29.2c0-16.3,12.9-29.2,29.2-29.2h92.8c16.3,0,29.2,12.9,29.2,29.2c0,16.3-12.9,29.2-29.2,29.2H269.6L269.6,666.3z M269.6,481.5c-16.3,0-29.2-12.9-29.2-29.2c0-16.3,12.9-29.2,29.2-29.2h461.6c16.3,0,29.2,12.9,29.2,29.2c0,16.3-12.9,29.2-29.2,29.2H269.6L269.6,481.5z M269.6,297.5c-16.3,0-29.2-12.9-29.2-29.2s12.9-29.2,29.2-29.2h461.6c16.3,0,29.2,12.9,29.2,29.2s-12.9,29.2-29.2,29.2H269.6L269.6,297.5z"/></g>
</svg>
