<?xml version="1.0" encoding="iso-8859-1"?>
<!-- Generator: Adobe Illustrator 19.0.0, SVG Export Plug-In . SVG Version: 6.00 Build 0)  -->
<svg version="1.1" id="Layer_1" width="36px" height="36px" xmlns="http://www.w3.org/2000/svg" xmlns:xlink="http://www.w3.org/1999/xlink" x="0px" y="0px"
	 viewBox="0 0 485.415 485.415" style="enable-background:new 0 0 485.415 485.415;" xml:space="preserve">
<g>
	<g>
		<path d="M242.215,16.246L0,223.015l12.8,14.769l39.385-33.477v264.862h132.923h115.2h132.923V204.308l39.385,33.477l12.8-14.769
			L242.215,16.246z M279.631,449.477h-75.815V319.508h75.815V449.477z M412.554,449.477H299.323V299.815H185.108v149.662H71.877
			V187.569L242.215,42.831l170.338,144.739V449.477z"/>
	</g>
</g>
<g>
	<g>
		<path d="M242.215,139.323c-31.508,0-57.108,24.615-57.108,57.108c0,31.508,25.6,57.108,57.108,57.108s57.108-25.6,57.108-57.108
			S273.723,139.323,242.215,139.323z M242.215,233.846c-20.677,0-37.415-16.738-37.415-37.415c0-20.677,16.738-37.415,37.415-37.415
			c20.677,0,37.415,16.738,37.415,37.415S262.892,233.846,242.215,233.846z"/>
	</g>
</g>
<g>
</g>
<g>
</g>
<g>
</g>
<g>
</g>
<g>
</g>
<g>
</g>
<g>
</g>
<g>
</g>
<g>
</g>
<g>
</g>
<g>
</g>
<g>
</g>
<g>
</g>
<g>
</g>
<g>
</g>
</svg>
