<svg width="50" height="51" viewBox="0 0 50 51" fill="none" xmlns="http://www.w3.org/2000/svg">
<ellipse cx="25.2895" cy="25.5714" rx="20.8617" ry="20.7934" fill="#F7FC11"/>
<path d="M25.2895 0L27.2806 4.77805H23.2985L25.2895 0Z" fill="#F7FC11"/>
<path d="M6.49619 8.83215L11.1001 10.8871L8.20408 13.7271L6.49619 8.83215Z" fill="#F7FC11"/>
<path d="M0.460417 20.7449L5.3641 19.6748L4.56663 23.7289L0.460417 20.7449Z" fill="#F7FC11"/>
<path d="M17.6286 49.4711L16.7049 44.3535L20.5882 45.2697L17.6286 49.4711Z" fill="#F7FC11"/>
<path d="M37.4307 3.64272L36.762 8.80289L33.3516 6.66655L37.4307 3.64272Z" fill="#F7FC11"/>
<path d="M46.3795 11.6467L43.7153 16.0564L41.4618 12.6449L46.3795 11.6467Z" fill="#F7FC11"/>
<path d="M49.9482 25.3938L45.3961 27.57L45.3063 23.4332L49.9482 25.3938Z" fill="#F7FC11"/>
<path d="M44.5334 32.3846L46.5245 37.1626H42.5424L44.5334 32.3846Z" fill="#F7FC11"/>
<path d="M14.9303 2.41709L18.3857 6.18769L14.6483 7.61559L14.9303 2.41709Z" fill="#F7FC11"/>
<path d="M2.05663 35.1039L5.43713 31.2607L7.06686 35.0362L2.05663 35.1039Z" fill="#F7FC11"/>
<path d="M8.88949 44.6664L9.80543 39.5474L13.1088 41.858L8.88949 44.6664Z" fill="#F7FC11"/>
<path d="M40.3614 45.4973L36.0575 42.831L39.2879 40.4114L40.3614 45.4973Z" fill="#F7FC11"/>
<path d="M30.6398 50.6857L26.6642 45.2679L31.9811 44.1582L30.6398 50.6857Z" fill="#F7FC11"/>
</svg>
